<svg xmlns="http://www.w3.org/2000/svg">
  <symbol id="arrow" viewBox="0 0 10 15">
    <g>
      <path d="M5.6514 7.17113L5.8121 7L5.6514 6.82887L0.783793 1.64519L1.98874 0.36479L8.23297 7L1.98874 13.6352L0.783793 12.3548L5.6514 7.17113Z" fill="white"/>
    </g>
  </symbol>
  <symbol id="search" viewBox="0 0 18 18">
    <g> 
      <path fill-rule="evenodd" clip-rule="evenodd" d="M12.0515 11.3208H12.8645L18 16.4666L16.4666 18L11.3208 12.8645V12.0515L11.0429 11.7633C9.86964 12.7719 8.34648 13.3791 6.68954 13.3791C2.99485 13.3791 0 10.3842 0 6.68954C0 2.99485 2.99485 0 6.68954 0C10.3842 0 13.3791 2.99485 13.3791 6.68954C13.3791 8.34648 12.7719 9.86964 11.7633 11.0429L12.0515 11.3208ZM2.05832 6.68953C2.05832 9.25214 4.12693 11.3208 6.68954 11.3208C9.25214 11.3208 11.3208 9.25214 11.3208 6.68953C11.3208 4.12693 9.25214 2.05832 6.68954 2.05832C4.12693 2.05832 2.05832 4.12693 2.05832 6.68953Z" fill="#828282"/>
    </g>
  </symbol>
   <symbol id="location" viewBox="0 0 18 26">
    <g>
      <path fill-rule="evenodd" clip-rule="evenodd" d="M9 0C4.02429 0 0 4.069 0 9.1C0 15.925 9 26 9 26C9 26 18 15.925 18 9.1C18 4.069 13.9757 0 9 0ZM2.57143 9.10003C2.57143 5.51203 5.45143 2.60003 9 2.60003C12.5486 2.60003 15.4286 5.51203 15.4286 9.10003C15.4286 12.844 11.7257 18.447 9 21.944C6.32572 18.473 2.57143 12.805 2.57143 9.10003ZM5.78571 9.09999C5.78571 7.30507 7.2248 5.84999 9 5.84999C10.1484 5.84999 11.2095 6.46944 11.7837 7.47499C12.3578 8.48055 12.3578 9.71944 11.7837 10.725C11.2095 11.7305 10.1484 12.35 9 12.35C7.2248 12.35 5.78571 10.8949 5.78571 9.09999Z" fill="#333333"/>
    </g>
  </symbol>
</svg>