<svg xmlns="http://www.w3.org/2000/svg">
  <symbol id="arrow" viewBox="0 0 10 15">
    <g>
      <path d="M5.6514 7.17113L5.8121 7L5.6514 6.82887L0.783793 1.64519L1.98874 0.36479L8.23297 7L1.98874 13.6352L0.783793 12.3548L5.6514 7.17113Z" fill="white"/>
    </g>
  </symbol>
  <symbol id="search" viewBox="0 0 18 18">
    <g> 
      <path fill-rule="evenodd" clip-rule="evenodd" d="M12.0515 11.3208H12.8645L18 16.4666L16.4666 18L11.3208 12.8645V12.0515L11.0429 11.7633C9.86964 12.7719 8.34648 13.3791 6.68954 13.3791C2.99485 13.3791 0 10.3842 0 6.68954C0 2.99485 2.99485 0 6.68954 0C10.3842 0 13.3791 2.99485 13.3791 6.68954C13.3791 8.34648 12.7719 9.86964 11.7633 11.0429L12.0515 11.3208ZM2.05832 6.68953C2.05832 9.25214 4.12693 11.3208 6.68954 11.3208C9.25214 11.3208 11.3208 9.25214 11.3208 6.68953C11.3208 4.12693 9.25214 2.05832 6.68954 2.05832C4.12693 2.05832 2.05832 4.12693 2.05832 6.68953Z" fill="#828282"/>
    </g>
  </symbol>
   <symbol id="location" viewBox="0 0 17 24">
    <g>
      <path fill-rule="evenodd" clip-rule="evenodd" d="M8.16667 0C3.65167 0 0 3.65167 0 8.16667C0 14.2917 8.16667 23.3333 8.16667 23.3333C8.16667 23.3333 16.3333 14.2917 16.3333 8.16667C16.3333 3.65167 12.6817 0 8.16667 0ZM2.33333 8.16667C2.33333 4.94667 4.94667 2.33333 8.16667 2.33333C11.3867 2.33333 14 4.94667 14 8.16667C14 11.5267 10.64 16.555 8.16667 19.6933C5.74 16.5783 2.33333 11.4917 2.33333 8.16667ZM5.25 8.16667C5.25 6.55584 6.55584 5.25 8.16667 5.25C9.20869 5.25 10.1716 5.80591 10.6926 6.70833C11.2136 7.61075 11.2136 8.72258 10.6926 9.625C10.1716 10.5274 9.20869 11.0833 8.16667 11.0833C6.55584 11.0833 5.25 9.7775 5.25 8.16667Z" fill="#333333"/>
    </g>
  </symbol>
</svg>