<svg xmlns="http://www.w3.org/2000/svg">
  <symbol id="clear-cloudy-day" viewBox="0 0 48 48">
    <g>  
      <path fill-rule="evenodd" clip-rule="evenodd" d="M41.25 17C41.25 21.5563 37.5564 25.25 33 25.25C28.4437 25.25 24.75 21.5563 24.75 17C24.75 12.4437 28.4437 8.75 33 8.75C37.5564 8.75 41.25 12.4437 41.25 17Z" stroke="#231815" stroke-width="2"/>
      <g clip-path="url(#clip0)">
      <line x1="47" y1="17.25" x2="44.5" y2="17.25" stroke="#F25022" stroke-width="2" stroke-linecap="round" stroke-linejoin="round"/>
      </g>
      <g clip-path="url(#clip1)">
      <line x1="21.5" y1="17.25" x2="19" y2="17.25" stroke="#F25022" stroke-width="2" stroke-linecap="round" stroke-linejoin="round"/>
      </g>
      <g clip-path="url(#clip2)">
      <line x1="47" y1="17.25" x2="44.5" y2="17.25" stroke="#231815" stroke-width="2" stroke-linecap="round" stroke-linejoin="round"/>
      </g>
      <g clip-path="url(#clip3)">
      <line x1="21.5" y1="17.25" x2="19" y2="17.25" stroke="#231815" stroke-width="2" stroke-linecap="round" stroke-linejoin="round"/>
      </g>
      <g clip-path="url(#clip4)">
      <line x1="44.9994" y1="24.2165" x2="42.8343" y2="22.9665" stroke="#231815" stroke-width="2" stroke-linecap="round" stroke-linejoin="round"/>
      </g>
      <g clip-path="url(#clip5)">
      <line x1="22.9157" y1="11.4665" x2="20.7506" y2="10.2165" stroke="#231815" stroke-width="2" stroke-linecap="round" stroke-linejoin="round"/>
      </g>
      <g clip-path="url(#clip6)">
      <line x1="39.7835" y1="29.2494" x2="38.5335" y2="27.0843" stroke="#231815" stroke-width="2" stroke-linecap="round" stroke-linejoin="round"/>
      </g>
      <g clip-path="url(#clip7)">
      <line x1="27.0335" y1="7.1657" x2="25.7835" y2="5.00063" stroke="#231815" stroke-width="2" stroke-linecap="round" stroke-linejoin="round"/>
      </g>
      <g clip-path="url(#clip8)">
      <line x1="32.75" y1="31" x2="32.75" y2="28.5" stroke="#231815" stroke-width="2" stroke-linecap="round" stroke-linejoin="round"/>
      </g>
      <g clip-path="url(#clip9)">
      <line x1="32.75" y1="5.5" x2="32.75" y2="3" stroke="#231815" stroke-width="2" stroke-linecap="round" stroke-linejoin="round"/>
      </g>
      <g clip-path="url(#clip10)">
      <line x1="25.7835" y1="28.9994" x2="27.0335" y2="26.8343" stroke="#231815" stroke-width="2" stroke-linecap="round" stroke-linejoin="round"/>
      </g>
      <g clip-path="url(#clip11)">
      <line x1="38.5335" y1="6.9157" x2="39.7835" y2="4.75063" stroke="#231815" stroke-width="2" stroke-linecap="round" stroke-linejoin="round"/>
      </g>
      <g clip-path="url(#clip12)">
      <line x1="20.7506" y1="23.7835" x2="22.9157" y2="22.5335" stroke="#231815" stroke-width="2" stroke-linecap="round" stroke-linejoin="round"/>
      </g>
      <g clip-path="url(#clip13)">
      <line x1="42.8343" y1="11.0335" x2="44.9993" y2="9.7835" stroke="#231815" stroke-width="2" stroke-linecap="round" stroke-linejoin="round"/>
      </g>
      <path d="M40.5 17C40.5 21.1421 37.1421 24.5 33 24.5C28.8579 24.5 25.5 21.1421 25.5 17C25.5 12.8579 28.8579 9.5 33 9.5C37.1421 9.5 40.5 12.8579 40.5 17Z" fill="#FFB900"/>
      <path fill-rule="evenodd" clip-rule="evenodd" d="M33.8127 21.0641C33.8127 21.0641 33.997 22 34.0599 22.009C37.4537 22.4929 40 24.4725 40 28C40 31.866 36.866 35 33 35H15C11.134 35 8 31.866 8 28C8 24.4725 10.6092 21.5544 14.003 21.0705C14.0659 21.0615 14.1275 21.0596 14.1873 21.0641C15.0889 16.4677 19.1395 13 24 13C28.8605 13 32.9111 16.4677 33.8127 21.0641Z" fill="#F3F3F3"/>
      <path d="M15.5294 35C11.371 35 8 31.7168 8 27.6667C8 24.1291 10.5718 21.1766 13.9938 20.486C15.1702 16.1758 19.2043 13 24 13C29.4215 13 33.8697 17.0587 34.3161 22.2266C37.5268 22.6559 40 25.3383 40 28.5833C40 32.1272 37.0503 35 33.4118 35H15.5294Z" fill="none" stroke="#231815" stroke-width="2" stroke-linecap="round" stroke-linejoin="round"/>
      <defs>
      <clipPath id="clip0">
      <rect x="42.75" y="15.5" width="6" height="3" rx="1.5" fill="white"/>
      </clipPath>
      <clipPath id="clip1">
      <rect x="17.25" y="15.5" width="6" height="3" rx="1.5" fill="white"/>
      </clipPath>
      <clipPath id="clip2">
      <rect x="42.75" y="15.5" width="6" height="3" rx="1.5" fill="white"/>
      </clipPath>
      <clipPath id="clip3">
      <rect x="17.25" y="15.5" width="6" height="3" rx="1.5" fill="white"/>
      </clipPath>
      <clipPath id="clip4">
      <rect x="42.1938" y="20.576" width="6" height="3" rx="1.5" transform="rotate(30 42.1938 20.576)" fill="white"/>
      </clipPath>
      <clipPath id="clip5">
      <rect x="20.1101" y="7.82596" width="6" height="3" rx="1.5" transform="rotate(30 20.1101 7.82596)" fill="white"/>
      </clipPath>
      <clipPath id="clip6">
      <rect x="39.174" y="24.6938" width="6.00001" height="3" rx="1.5" transform="rotate(60 39.174 24.6938)" fill="white"/>
      </clipPath>
      <clipPath id="clip7">
      <rect x="26.424" y="2.61009" width="6" height="3" rx="1.5" transform="rotate(60 26.424 2.61009)" fill="white"/>
      </clipPath>
      <clipPath id="clip8">
      <rect x="34.5" y="26.75" width="6" height="3" rx="1.5" transform="rotate(90 34.5 26.75)" fill="white"/>
      </clipPath>
      <clipPath id="clip9">
      <rect x="34.5" y="1.25" width="6" height="3" rx="1.5" transform="rotate(90 34.5 1.25)" fill="white"/>
      </clipPath>
      <clipPath id="clip10">
      <rect x="29.424" y="26.1938" width="6" height="3" rx="1.5" transform="rotate(120 29.424 26.1938)" fill="white"/>
      </clipPath>
      <clipPath id="clip11">
      <rect x="42.174" y="4.11009" width="6" height="3" rx="1.5" transform="rotate(120 42.174 4.11009)" fill="white"/>
      </clipPath>
      <clipPath id="clip12">
      <rect x="25.3062" y="23.174" width="6" height="3" rx="1.5" transform="rotate(150 25.3062 23.174)" fill="white"/>
      </clipPath>
      <clipPath id="clip13">
      <rect x="47.3899" y="10.424" width="5.99999" height="3" rx="1.5" transform="rotate(150 47.3899 10.424)" fill="white"/>
      </clipPath>
      </defs>
    </g>
  </symbol>
  <symbol id="clear-cloudy-night" viewBox="0 0 48 48">
    <g>   
      <path fill-rule="evenodd" clip-rule="evenodd" d="M46 14.6485C44.6594 15.5567 43.0421 16.0872 41.3009 16.0872C36.6682 16.0872 32.9126 12.3316 32.9126 7.69889C32.9126 5.95776 33.4431 4.34053 34.3512 3C28.5773 3.34058 24 8.1309 24 13.9903C24 20.0708 28.9292 25 35.0097 25C40.8692 25 45.6596 20.4225 46 14.6485Z" fill="#ADD0EC" stroke="#231815" stroke-width="2" stroke-linecap="round" stroke-linejoin="round"/>
      <path fill-rule="evenodd" clip-rule="evenodd" d="M33.8127 21.0641C33.8127 21.0641 33.997 22 34.0599 22.009C37.4537 22.4929 40 24.4725 40 28C40 31.866 36.866 35 33 35H15C11.134 35 8 31.866 8 28C8 24.4725 10.6092 21.5544 14.003 21.0705C14.0659 21.0615 14.1275 21.0596 14.1873 21.0641C15.0889 16.4677 19.1395 13 24 13C28.8605 13 32.9111 16.4677 33.8127 21.0641Z" fill="#F3F3F3"/>
      <path d="M15.5294 35C11.371 35 8 31.7168 8 27.6667C8 24.1291 10.5718 21.1766 13.9938 20.486C15.1702 16.1758 19.2043 13 24 13C29.4215 13 33.8697 17.0587 34.3161 22.2266C37.5268 22.6559 40 25.3383 40 28.5833C40 32.1272 37.0503 35 33.4118 35H15.5294Z" fill="none" stroke="#231815" stroke-width="2" stroke-linecap="round" stroke-linejoin="round"/>
    </g> 
  </symbol>
  <symbol id="drizzle-day" viewBox="0 0 48 48">
    <g>
      <path fill-rule="evenodd" clip-rule="evenodd" d="M41.25 17C41.25 21.5563 37.5563 25.25 33 25.25C28.4437 25.25 24.75 21.5563 24.75 17C24.75 12.4437 28.4437 8.75 33 8.75C37.5563 8.75 41.25 12.4437 41.25 17Z" stroke="#231815" stroke-width="2"/>
      <g clip-path="url(#clip0)">
      <line x1="47" y1="17.25" x2="44.5" y2="17.25" stroke="#F25022" stroke-width="2" stroke-linecap="round" stroke-linejoin="round"/>
      </g>
      <g clip-path="url(#clip1)">
      <line x1="21.5" y1="17.25" x2="19" y2="17.25" stroke="#F25022" stroke-width="2" stroke-linecap="round" stroke-linejoin="round"/>
      </g>
      <g clip-path="url(#clip2)">
      <line x1="47" y1="17.25" x2="44.5" y2="17.25" stroke="#231815" stroke-width="2" stroke-linecap="round" stroke-linejoin="round"/>
      </g>
      <g clip-path="url(#clip3)">
      <line x1="21.5" y1="17.25" x2="19" y2="17.25" stroke="#231815" stroke-width="2" stroke-linecap="round" stroke-linejoin="round"/>
      </g>
      <g clip-path="url(#clip4)">
      <line x1="44.9994" y1="24.2165" x2="42.8343" y2="22.9665" stroke="#231815" stroke-width="2" stroke-linecap="round" stroke-linejoin="round"/>
      </g>
      <g clip-path="url(#clip5)">
      <line x1="39.7835" y1="29.2494" x2="38.5335" y2="27.0843" stroke="#231815" stroke-width="2" stroke-linecap="round" stroke-linejoin="round"/>
      </g>
      <g clip-path="url(#clip6)">
      <line x1="27.0335" y1="7.16571" x2="25.7835" y2="5.00064" stroke="#231815" stroke-width="2" stroke-linecap="round" stroke-linejoin="round"/>
      </g>
      <g clip-path="url(#clip7)">
      <line x1="32.75" y1="31" x2="32.75" y2="28.5" stroke="#231815" stroke-width="2" stroke-linecap="round" stroke-linejoin="round"/>
      </g>
      <g clip-path="url(#clip8)">
      <line x1="32.75" y1="5.5" x2="32.75" y2="3" stroke="#231815" stroke-width="2" stroke-linecap="round" stroke-linejoin="round"/>
      </g>
      <g clip-path="url(#clip9)">
      <line x1="25.7835" y1="28.9994" x2="27.0335" y2="26.8343" stroke="#231815" stroke-width="2" stroke-linecap="round" stroke-linejoin="round"/>
      </g>
      <g clip-path="url(#clip10)">
      <line x1="38.5335" y1="6.9157" x2="39.7835" y2="4.75063" stroke="#231815" stroke-width="2" stroke-linecap="round" stroke-linejoin="round"/>
      </g>
      <g clip-path="url(#clip11)">
      <line x1="20.7506" y1="23.7835" x2="22.9157" y2="22.5335" stroke="#231815" stroke-width="2" stroke-linecap="round" stroke-linejoin="round"/>
      </g>
      <g clip-path="url(#clip12)">
      <line x1="42.8343" y1="11.0335" x2="44.9994" y2="9.78349" stroke="#231815" stroke-width="2" stroke-linecap="round" stroke-linejoin="round"/>
      </g>
      <path d="M40.5 17C40.5 21.1421 37.1421 24.5 33 24.5C28.8579 24.5 25.5 21.1421 25.5 17C25.5 12.8579 28.8579 9.5 33 9.5C37.1421 9.5 40.5 12.8579 40.5 17Z" fill="#FFB900"/>
      <path fill-rule="evenodd" clip-rule="evenodd" d="M22.3596 14.798C22.3596 14.798 22.4978 15.5 22.5449 15.5067C25.0902 15.8697 27 17.3544 27 20C27 22.8995 24.6495 25.25 21.75 25.25H8.25C5.3505 25.25 3 22.8995 3 20C3 17.3544 4.95692 15.1658 7.50223 14.8028C7.54939 14.7961 7.59559 14.7947 7.64044 14.798C8.31666 11.3508 11.3546 8.75 15 8.75C18.6454 8.75 21.6833 11.3508 22.3596 14.798Z" fill="#F3F3F3"/>
      <path d="M8.64706 25.25C5.52827 25.25 3 22.7876 3 19.75C3 17.0968 4.92887 14.8824 7.49533 14.3645C8.37762 11.1319 11.4032 8.75 15 8.75C19.0661 8.75 22.4023 11.794 22.7371 15.67C25.1451 15.9919 27 18.0037 27 20.4375C27 23.0954 24.7878 25.25 22.0588 25.25H8.64706Z" fill="none" stroke="#231815" stroke-width="2" stroke-linecap="round" stroke-linejoin="round"/>
      <path fill-rule="evenodd" clip-rule="evenodd" d="M33.8127 21.0641C33.8127 21.0641 33.997 22 34.0599 22.009C37.4537 22.4929 40 24.4725 40 28C40 31.866 36.866 35 33 35H15C11.134 35 8 31.866 8 28C8 24.4725 10.6092 21.5544 14.003 21.0705C14.0659 21.0615 14.1275 21.0596 14.1873 21.0641C15.0889 16.4677 19.1395 13 24 13C28.8605 13 32.9111 16.4677 33.8127 21.0641Z" fill="#F3F3F3"/>
      <path d="M33 35H33.4118C37.0503 35 40 32.1272 40 28.5833C40 25.3383 37.5268 22.6559 34.3161 22.2266C33.8697 17.0587 29.4215 13 24 13C19.2043 13 15.1702 16.1758 13.9938 20.486C10.5718 21.1766 8 24.1291 8 27.6667C8 31.5434 11.0886 34.7175 15 34.9822" fill="none" stroke="#231815" stroke-width="2" stroke-linecap="round" stroke-linejoin="round"/>
      <path d="M18 37.6962L20.5 33.366M23 36.6962L25.5 32.366M27 38.6962L29.5 34.366" fill="none" stroke="#231815" stroke-width="2" stroke-linecap="round" stroke-linejoin="round"/>
      <defs>
      <clipPath id="clip0">
      <rect x="42.75" y="15.5" width="6" height="3" rx="1.5" fill="white"/>
      </clipPath>
      <clipPath id="clip1">
      <rect x="17.25" y="15.5" width="6" height="3" rx="1.5" fill="white"/>
      </clipPath>
      <clipPath id="clip2">
      <rect x="42.75" y="15.5" width="6" height="3" rx="1.5" fill="white"/>
      </clipPath>
      <clipPath id="clip3">
      <rect x="17.25" y="15.5" width="6" height="3" rx="1.5" fill="white"/>
      </clipPath>
      <clipPath id="clip4">
      <rect x="42.1938" y="20.576" width="6" height="3" rx="1.5" transform="rotate(30 42.1938 20.576)" fill="white"/>
      </clipPath>
      <clipPath id="clip5">
      <rect x="39.174" y="24.6937" width="6" height="3" rx="1.5" transform="rotate(60 39.174 24.6937)" fill="white"/>
      </clipPath>
      <clipPath id="clip6">
      <rect x="26.424" y="2.6101" width="6" height="3" rx="1.5" transform="rotate(60 26.424 2.6101)" fill="white"/>
      </clipPath>
      <clipPath id="clip7">
      <rect x="34.5" y="26.75" width="6" height="3" rx="1.5" transform="rotate(90 34.5 26.75)" fill="white"/>
      </clipPath>
      <clipPath id="clip8">
      <rect x="34.5" y="1.25" width="6" height="3" rx="1.5" transform="rotate(90 34.5 1.25)" fill="white"/>
      </clipPath>
      <clipPath id="clip9">
      <rect x="29.424" y="26.1937" width="6" height="3" rx="1.5" transform="rotate(120 29.424 26.1937)" fill="white"/>
      </clipPath>
      <clipPath id="clip10">
      <rect x="42.174" y="4.11009" width="6" height="3" rx="1.5" transform="rotate(120 42.174 4.11009)" fill="white"/>
      </clipPath>
      <clipPath id="clip11">
      <rect x="25.3062" y="23.174" width="6" height="3" rx="1.5" transform="rotate(150 25.3062 23.174)" fill="white"/>
      </clipPath>
      <clipPath id="clip12">
      <rect x="47.3899" y="10.424" width="6" height="3" rx="1.5" transform="rotate(150 47.3899 10.424)" fill="white"/>
      </clipPath>
      </defs>
    </g> 
  </symbol> 
  <symbol id="drizzle-night" viewBox="0 0 48 48">
    <g> 
      <path fill-rule="evenodd" clip-rule="evenodd" d="M46 14.6485C44.6594 15.5567 43.0421 16.0872 41.3009 16.0872C36.6682 16.0872 32.9126 12.3316 32.9126 7.69889C32.9126 5.95776 33.4431 4.34053 34.3512 3C28.5773 3.34058 24 8.1309 24 13.9903C24 20.0708 28.9292 25 35.0097 25C40.8692 25 45.6596 20.4225 46 14.6485Z" fill="#ADD0EC" stroke="#231815" stroke-width="2" stroke-linecap="round" stroke-linejoin="round"/>
      <path fill-rule="evenodd" clip-rule="evenodd" d="M22.3596 14.798C22.3596 14.798 22.4978 15.5 22.5449 15.5067C25.0902 15.8697 27 17.3544 27 20C27 22.8995 24.6495 25.25 21.75 25.25H8.25C5.3505 25.25 3 22.8995 3 20C3 17.3544 4.95692 15.1658 7.50223 14.8028C7.54939 14.7961 7.59559 14.7947 7.64044 14.798C8.31666 11.3508 11.3546 8.75 15 8.75C18.6454 8.75 21.6833 11.3508 22.3596 14.798Z" fill="#F3F3F3"/>
      <path d="M8.64706 25.25C5.52827 25.25 3 22.7876 3 19.75C3 17.0968 4.92887 14.8824 7.49533 14.3645C8.37762 11.1319 11.4032 8.75 15 8.75C19.0661 8.75 22.4023 11.794 22.7371 15.67C25.1451 15.9919 27 18.0037 27 20.4375C27 23.0954 24.7878 25.25 22.0588 25.25H8.64706Z" fill="none" stroke="#231815" stroke-width="2" stroke-linecap="round" stroke-linejoin="round"/>
      <path fill-rule="evenodd" clip-rule="evenodd" d="M33.8127 21.0641C33.8127 21.0641 33.997 22 34.0599 22.009C37.4537 22.4929 40 24.4725 40 28C40 31.866 36.866 35 33 35H15C11.134 35 8 31.866 8 28C8 24.4725 10.6092 21.5544 14.003 21.0705C14.0659 21.0615 14.1275 21.0596 14.1873 21.0641C15.0889 16.4677 19.1395 13 24 13C28.8605 13 32.9111 16.4677 33.8127 21.0641Z" fill="#F3F3F3"/>
      <path d="M33 35H33.4118C37.0503 35 40 32.1272 40 28.5833C40 25.3383 37.5268 22.6559 34.3161 22.2266C33.8697 17.0587 29.4215 13 24 13C19.2043 13 15.1702 16.1758 13.9938 20.486C10.5718 21.1766 8 24.1291 8 27.6667C8 31.5434 11.0886 34.7175 15 34.9822" fill="none" stroke="#231815" stroke-width="2" stroke-linecap="round" stroke-linejoin="round"/>
      <path d="M18 37.6962L20.5 33.366M23 36.6962L25.5 32.366M27 38.6962L29.5 34.366" fill="none" stroke="#231815" stroke-width="2" stroke-linecap="round" stroke-linejoin="round"/>
    </g> 
  </symbol> 
  <symbol id="hail" viewBox="0 0 48 48">
    <g>
      <path fill-rule="evenodd" clip-rule="evenodd" d="M33.8127 21.0641C33.8127 21.0641 33.997 22 34.0599 22.009C37.4537 22.4929 40 24.4725 40 28C40 31.866 36.866 35 33 35H15C11.134 35 8 31.866 8 28C8 24.4725 10.6092 21.5544 14.003 21.0705C14.0659 21.0615 14.1275 21.0596 14.1873 21.0641C15.0889 16.4677 19.1395 13 24 13C28.8605 13 32.9111 16.4677 33.8127 21.0641Z" fill="#F3F3F3"/>
      <path d="M33 35H33.4118C37.0503 35 40 32.1272 40 28.5833C40 25.3383 37.5268 22.6559 34.3161 22.2266C33.8697 17.0587 29.4215 13 24 13C19.2043 13 15.1702 16.1758 13.9938 20.486C10.5718 21.1766 8 24.1291 8 27.6667C8 31.5434 11.0886 34.7175 15 34.9822" fill="none" stroke="#231815" stroke-width="2" stroke-linecap="round" stroke-linejoin="round"/>
      <path d="M21 34.5C21 35.3284 20.3284 36 19.5 36C18.6716 36 18 35.3284 18 34.5C18 33.6716 18.6716 33 19.5 33C20.3284 33 21 33.6716 21 34.5Z" fill="#231815"/>
      <path d="M25.5 36.5C25.5 37.3284 24.8284 38 24 38C23.1716 38 22.5 37.3284 22.5 36.5C22.5 35.6716 23.1716 35 24 35C24.8284 35 25.5 35.6716 25.5 36.5Z" fill="#231815"/>
      <path d="M25.5 31.5C25.5 32.3284 24.8284 33 24 33C23.1716 33 22.5 32.3284 22.5 31.5C22.5 30.6716 23.1716 30 24 30C24.8284 30 25.5 30.6716 25.5 31.5Z" fill="#231815"/>
      <path d="M30 34.5C30 35.3284 29.3284 36 28.5 36C27.6716 36 27 35.3284 27 34.5C27 33.6716 27.6716 33 28.5 33C29.3284 33 30 33.6716 30 34.5Z" fill="#231815"/>
      <path d="M21 38.5C21 39.3284 20.3284 40 19.5 40C18.6716 40 18 39.3284 18 38.5C18 37.6716 18.6716 37 19.5 37C20.3284 37 21 37.6716 21 38.5Z" fill="#231815"/>
      <path d="M30 38.5C30 39.3284 29.3284 40 28.5 40C27.6716 40 27 39.3284 27 38.5C27 37.6716 27.6716 37 28.5 37C29.3284 37 30 37.6716 30 38.5Z" fill="#231815"/>
    </g> 
  </symbol> 
  <symbol id="isolated-thunderstroms" viewBox="0 0 48 48">
    <g>
      <path fill-rule="evenodd" clip-rule="evenodd" d="M33.8127 21.0641C33.8127 21.0641 33.997 22 34.0599 22.009C37.4537 22.4929 40 24.4725 40 28C40 31.866 36.866 35 33 35H15C11.134 35 8 31.866 8 28C8 24.4725 10.6092 21.5544 14.003 21.0705C14.0659 21.0615 14.1275 21.0596 14.1873 21.0641C15.0889 16.4677 19.1395 13 24 13C28.8605 13 32.9111 16.4677 33.8127 21.0641Z" fill="#F3F3F3"/>
      <path d="M33 35H33.4118C37.0503 35 40 32.1272 40 28.5833C40 25.3383 37.5268 22.6559 34.3161 22.2266C33.8697 17.0587 29.4215 13 24 13C19.2043 13 15.1702 16.1758 13.9938 20.486C10.5718 21.1766 8 24.1291 8 27.6667C8 31.5434 11.0886 34.7175 15 34.9822" fill="none" stroke="#231815" stroke-width="2" stroke-linecap="round" stroke-linejoin="round"/>
      <path fill-rule="evenodd" clip-rule="evenodd" d="M28 28C26.3431 28 25 29.3431 25 31V31.2727C25 31.825 25.4477 32.2727 26 32.2727C26.5523 32.2727 27 31.825 27 31.2727V31C27 30.4477 27.4477 30 28 30C28.5523 30 29 30.4477 29 31V31.5C29 32.3284 28.3284 33 27.5 33H26.5C25.9477 33 25.5 33.4477 25.5 34C25.5 34.5523 25.9477 35 26.5 35H27.5C29.433 35 31 33.433 31 31.5V31C31 29.3431 29.6569 28 28 28ZM28.5 44C26.567 44 25 42.433 25 40.5V40C25 39.4477 25.4477 39 26 39C26.5523 39 27 39.4477 27 40V40.5C27 41.3284 27.6716 42 28.5 42C29.3284 42 30 41.3284 30 40.5V40C30 38.8954 29.1046 38 28 38H24C23.4477 38 23 37.5523 23 37C23 36.4477 23.4477 36 24 36H28C30.2091 36 32 37.7909 32 40V40.5C32 42.433 30.433 44 28.5 44Z" fill="#231815"/>
      <path d="M24.9808 33.1872C24.9396 33.0676 24.8374 32.9812 24.7157 32.9633L20.9947 32.4116L22.7017 28.4818C22.7473 28.376 22.7382 28.2533 22.6769 28.1559C22.6159 28.0588 22.511 28 22.3988 28H17.2022C17.0236 28 16.8772 28.1458 16.8708 28.3297L16.6315 35.3135C16.6255 35.488 16.7481 35.6391 16.9157 35.664L19.5027 36.048L16.0414 42.4926C15.9603 42.6443 16.0015 42.8341 16.1376 42.9357C16.1962 42.9793 16.2639 43 16.3316 43C16.4214 43 16.5105 42.9623 16.5755 42.8894L24.9127 33.5332C24.9958 33.4399 25.022 33.3068 24.9808 33.1872Z" fill="#FFB900"/>
    </g> 
  </symbol> 
  <symbol id="mostly-cloudy" viewBox="0 0 48 48">
    <g>
      <path fill-rule="evenodd" clip-rule="evenodd" d="M22.3596 16.798C22.3596 16.798 22.4978 17.5 22.5449 17.5067C25.0902 17.8697 27 19.3544 27 22C27 24.8995 24.6495 27.25 21.75 27.25H8.25C5.3505 27.25 3 24.8995 3 22C3 19.3544 4.95692 17.1658 7.50223 16.8028C7.54939 16.7961 7.59559 16.7947 7.64044 16.798C8.31666 13.3508 11.3546 10.75 15 10.75C18.6454 10.75 21.6833 13.3508 22.3596 16.798Z" fill="#F3F3F3"/>
      <path d="M8.64706 27.25C5.52827 27.25 3 24.7876 3 21.75C3 19.0968 4.92887 16.8824 7.49533 16.3645C8.37762 13.1319 11.4032 10.75 15 10.75C19.0661 10.75 22.4023 13.794 22.7371 17.67C25.1451 17.9919 27 20.0037 27 22.4375C27 25.0954 24.7878 27.25 22.0588 27.25H8.64706Z" fill="none" stroke="#231815" stroke-width="2" stroke-linecap="round" stroke-linejoin="round"/>
      <path fill-rule="evenodd" clip-rule="evenodd" d="M33.8127 23.0641C33.8127 23.0641 33.997 24 34.0599 24.009C37.4537 24.4929 40 26.4725 40 30C40 33.866 36.866 37 33 37H15C11.134 37 8 33.866 8 30C8 26.4725 10.6092 23.5544 14.003 23.0705C14.0659 23.0615 14.1275 23.0596 14.1873 23.0641C15.0889 18.4677 19.1395 15 24 15C28.8605 15 32.9111 18.4677 33.8127 23.0641Z" fill="#F3F3F3"/>
      <path d="M15.5294 37C11.371 37 8 33.7168 8 29.6667C8 26.1291 10.5718 23.1766 13.9938 22.486C15.1702 18.1758 19.2043 15 24 15C29.4215 15 33.8697 19.0587 34.3161 24.2266C37.5268 24.6559 40 27.3383 40 30.5833C40 34.1272 37.0503 37 33.4118 37H15.5294Z" fill="none" stroke="#231815" stroke-width="2" stroke-linecap="round" stroke-linejoin="round"/>
    </g> 
  </symbol> 
  <symbol id="partly-cloudy-day" viewBox="0 0 48 48">
    <g>
      <path fill-rule="evenodd" clip-rule="evenodd" d="M41.25 17C41.25 21.5563 37.5563 25.25 33 25.25C28.4437 25.25 24.75 21.5563 24.75 17C24.75 12.4437 28.4437 8.75 33 8.75C37.5563 8.75 41.25 12.4437 41.25 17Z" stroke="#231815" stroke-width="2"/>
      <g clip-path="url(#clip0)">
      <line x1="47" y1="17.25" x2="44.5" y2="17.25" stroke="#F25022" stroke-width="2" stroke-linecap="round" stroke-linejoin="round"/>
      </g>
      <g clip-path="url(#clip1)">
      <line x1="21.5" y1="17.25" x2="19" y2="17.25" stroke="#F25022" stroke-width="2" stroke-linecap="round" stroke-linejoin="round"/>
      </g>
      <g clip-path="url(#clip2)">
      <line x1="47" y1="17.25" x2="44.5" y2="17.25" stroke="#231815" stroke-width="2" stroke-linecap="round" stroke-linejoin="round"/>
      </g>
      <g clip-path="url(#clip3)">
      <line x1="21.5" y1="17.25" x2="19" y2="17.25" stroke="#231815" stroke-width="2" stroke-linecap="round" stroke-linejoin="round"/>
      </g>
      <g clip-path="url(#clip4)">
      <line x1="44.9994" y1="24.2165" x2="42.8343" y2="22.9665" stroke="#231815" stroke-width="2" stroke-linecap="round" stroke-linejoin="round"/>
      </g>
      <g clip-path="url(#clip5)">
      <line x1="39.7835" y1="29.2494" x2="38.5335" y2="27.0843" stroke="#231815" stroke-width="2" stroke-linecap="round" stroke-linejoin="round"/>
      </g>
      <g clip-path="url(#clip6)">
      <line x1="27.0335" y1="7.1657" x2="25.7835" y2="5.00063" stroke="#231815" stroke-width="2" stroke-linecap="round" stroke-linejoin="round"/>
      </g>
      <g clip-path="url(#clip7)">
      <line x1="32.75" y1="31" x2="32.75" y2="28.5" stroke="#231815" stroke-width="2" stroke-linecap="round" stroke-linejoin="round"/>
      </g>
      <g clip-path="url(#clip8)">
      <line x1="32.75" y1="5.5" x2="32.75" y2="3" stroke="#231815" stroke-width="2" stroke-linecap="round" stroke-linejoin="round"/>
      </g>
      <g clip-path="url(#clip9)">
      <line x1="25.7835" y1="28.9994" x2="27.0335" y2="26.8343" stroke="#231815" stroke-width="2" stroke-linecap="round" stroke-linejoin="round"/>
      </g>
      <g clip-path="url(#clip10)">
      <line x1="38.5335" y1="6.9157" x2="39.7835" y2="4.75063" stroke="#231815" stroke-width="2" stroke-linecap="round" stroke-linejoin="round"/>
      </g>
      <g clip-path="url(#clip11)">
      <line x1="20.7506" y1="23.7835" x2="22.9157" y2="22.5335" stroke="#231815" stroke-width="2" stroke-linecap="round" stroke-linejoin="round"/>
      </g>
      <g clip-path="url(#clip12)">
      <line x1="42.8343" y1="11.0335" x2="44.9993" y2="9.78349" stroke="#231815" stroke-width="2" stroke-linecap="round" stroke-linejoin="round"/>
      </g>
      <path d="M40.5 17C40.5 21.1421 37.1421 24.5 33 24.5C28.8579 24.5 25.5 21.1421 25.5 17C25.5 12.8579 28.8579 9.5 33 9.5C37.1421 9.5 40.5 12.8579 40.5 17Z" fill="#FFB900"/>
      <path fill-rule="evenodd" clip-rule="evenodd" d="M22.3596 16.798C22.3596 16.798 22.4978 17.5 22.5449 17.5067C25.0902 17.8697 27 19.3544 27 22C27 24.8995 24.6495 27.25 21.75 27.25H8.25C5.3505 27.25 3 24.8995 3 22C3 19.3544 4.95692 17.1658 7.50223 16.8028C7.54939 16.7961 7.59559 16.7947 7.64044 16.798C8.31666 13.3508 11.3546 10.75 15 10.75C18.6454 10.75 21.6833 13.3508 22.3596 16.798Z" fill="#F3F3F3"/>
      <path d="M8.64706 27.25C5.52827 27.25 3 24.7876 3 21.75C3 19.0968 4.92887 16.8824 7.49533 16.3645C8.37762 13.1319 11.4032 10.75 15 10.75C19.0661 10.75 22.4023 13.794 22.7371 17.67C25.1451 17.9919 27 20.0037 27 22.4375C27 25.0954 24.7878 27.25 22.0588 27.25H8.64706Z" fill="none" stroke="#231815" stroke-width="2" stroke-linecap="round" stroke-linejoin="round"/>
      <path fill-rule="evenodd" clip-rule="evenodd" d="M33.8127 23.0641C33.8127 23.0641 33.997 24 34.0599 24.009C37.4537 24.4929 40 26.4725 40 30C40 33.866 36.866 37 33 37H15C11.134 37 8 33.866 8 30C8 26.4725 10.6092 23.5544 14.003 23.0705C14.0659 23.0615 14.1275 23.0596 14.1873 23.0641C15.0889 18.4677 19.1395 15 24 15C28.8605 15 32.9111 18.4677 33.8127 23.0641Z" fill="#F3F3F3"/>
      <path d="M15.5294 37C11.371 37 8 33.7168 8 29.6667C8 26.1291 10.5718 23.1766 13.9938 22.486C15.1702 18.1758 19.2043 15 24 15C29.4215 15 33.8697 19.0587 34.3161 24.2266C37.5268 24.6559 40 27.3383 40 30.5833C40 34.1272 37.0503 37 33.4118 37H15.5294Z" fill="none" stroke="#231815" stroke-width="2" stroke-linecap="round" stroke-linejoin="round"/>
      <defs>
      <clipPath id="clip0">
      <rect x="42.75" y="15.5" width="6" height="3" rx="1.5" fill="white"/>
      </clipPath>
      <clipPath id="clip1">
      <rect x="17.25" y="15.5" width="6" height="3" rx="1.5" fill="white"/>
      </clipPath>
      <clipPath id="clip2">
      <rect x="42.75" y="15.5" width="6" height="3" rx="1.5" fill="white"/>
      </clipPath>
      <clipPath id="clip3">
      <rect x="17.25" y="15.5" width="6" height="3" rx="1.5" fill="white"/>
      </clipPath>
      <clipPath id="clip4">
      <rect x="42.1937" y="20.576" width="6" height="3" rx="1.5" transform="rotate(30 42.1937 20.576)" fill="white"/>
      </clipPath>
      <clipPath id="clip5">
      <rect x="39.174" y="24.6938" width="6" height="3" rx="1.5" transform="rotate(60 39.174 24.6938)" fill="white"/>
      </clipPath>
      <clipPath id="clip6">
      <rect x="26.424" y="2.61009" width="6" height="3" rx="1.5" transform="rotate(60 26.424 2.61009)" fill="white"/>
      </clipPath>
      <clipPath id="clip7">
      <rect x="34.5" y="26.75" width="6" height="3" rx="1.5" transform="rotate(90 34.5 26.75)" fill="white"/>
      </clipPath>
      <clipPath id="clip8">
      <rect x="34.5" y="1.25" width="6" height="3" rx="1.5" transform="rotate(90 34.5 1.25)" fill="white"/>
      </clipPath>
      <clipPath id="clip9">
      <rect x="29.424" y="26.1938" width="6" height="3" rx="1.5" transform="rotate(120 29.424 26.1938)" fill="white"/>
      </clipPath>
      <clipPath id="clip10">
      <rect x="42.174" y="4.11009" width="6" height="3" rx="1.5" transform="rotate(120 42.174 4.11009)" fill="white"/>
      </clipPath>
      <clipPath id="clip11">
      <rect x="25.3063" y="23.174" width="6" height="3" rx="1.5" transform="rotate(150 25.3063 23.174)" fill="white"/>
      </clipPath>
      <clipPath id="clip12">
      <rect x="47.3899" y="10.424" width="6" height="3" rx="1.5" transform="rotate(150 47.3899 10.424)" fill="white"/>
      </clipPath>
      </defs>
    </g> 
  </symbol> 
  <symbol id="partly-cloudy-night" viewBox="0 0 48 48">
    <g>
      <path fill-rule="evenodd" clip-rule="evenodd" d="M46 14.6485C44.6594 15.5567 43.0421 16.0872 41.3009 16.0872C36.6682 16.0872 32.9126 12.3316 32.9126 7.69889C32.9126 5.95776 33.4431 4.34053 34.3512 3C28.5773 3.34058 24 8.1309 24 13.9903C24 20.0708 28.9292 25 35.0097 25C40.8692 25 45.6596 20.4225 46 14.6485Z" fill="#ADD0EC" stroke="#231815" stroke-width="2" stroke-linecap="round" stroke-linejoin="round"/>
      <path fill-rule="evenodd" clip-rule="evenodd" d="M22.3596 16.798C22.3596 16.798 22.4978 17.5 22.5449 17.5067C25.0902 17.8697 27 19.3544 27 22C27 24.8995 24.6495 27.25 21.75 27.25H8.25C5.3505 27.25 3 24.8995 3 22C3 19.3544 4.95692 17.1658 7.50223 16.8028C7.54939 16.7961 7.59559 16.7947 7.64044 16.798C8.31666 13.3508 11.3546 10.75 15 10.75C18.6454 10.75 21.6833 13.3508 22.3596 16.798Z" fill="#F3F3F3"/>
      <path d="M8.64706 27.25C5.52827 27.25 3 24.7876 3 21.75C3 19.0968 4.92887 16.8824 7.49533 16.3645C8.37762 13.1319 11.4032 10.75 15 10.75C19.0661 10.75 22.4023 13.794 22.7371 17.67C25.1451 17.9919 27 20.0037 27 22.4375C27 25.0954 24.7878 27.25 22.0588 27.25H8.64706Z" fill="none" stroke="#231815" stroke-width="2" stroke-linecap="round" stroke-linejoin="round"/>
      <path fill-rule="evenodd" clip-rule="evenodd" d="M33.8127 23.0641C33.8127 23.0641 33.997 24 34.0599 24.009C37.4537 24.4929 40 26.4725 40 30C40 33.866 36.866 37 33 37H15C11.134 37 8 33.866 8 30C8 26.4725 10.6092 23.5544 14.003 23.0705C14.0659 23.0615 14.1275 23.0596 14.1873 23.0641C15.0889 18.4677 19.1395 15 24 15C28.8605 15 32.9111 18.4677 33.8127 23.0641Z" fill="#F3F3F3"/>
      <path d="M15.5294 37C11.371 37 8 33.7168 8 29.6667C8 26.1291 10.5718 23.1766 13.9938 22.486C15.1702 18.1758 19.2043 15 24 15C29.4215 15 33.8697 19.0587 34.3161 24.2266C37.5268 24.6559 40 27.3383 40 30.5833C40 34.1272 37.0503 37 33.4118 37H15.5294Z" fill="none" stroke="#231815" stroke-width="2" stroke-linecap="round" stroke-linejoin="round"/>
      </g> 
  </symbol>
  <symbol id="cloudy" viewBox="0 0 48 48">
    <g>
      <path fill-rule="evenodd" clip-rule="evenodd" d="M33.8127 23.0641C33.8127 23.0641 33.997 24 34.0599 24.009C37.4537 24.4929 40 26.4725 40 30C40 33.866 36.866 37 33 37H15C11.134 37 8 33.866 8 30C8 26.4725 10.6092 23.5544 14.003 23.0705C14.0659 23.0615 14.1275 23.0596 14.1873 23.0641C15.0889 18.4677 19.1395 15 24 15C28.8605 15 32.9111 18.4677 33.8127 23.0641Z" fill="#F3F3F3"/>
      <path d="M15.5294 37C11.371 37 8 33.7168 8 29.6667C8 26.1291 10.5718 23.1766 13.9938 22.486C15.1702 18.1758 19.2043 15 24 15C29.4215 15 33.8697 19.0587 34.3161 24.2266C37.5268 24.6559 40 27.3383 40 30.5833C40 34.1272 37.0503 37 33.4118 37H15.5294Z" fill="none" stroke="#231815" stroke-width="2" stroke-linecap="round" stroke-linejoin="round"/>
    </g> 
  </symbol> 
  <symbol id="showers" viewBox="0 0 48 48">
    <g>
      <path fill-rule="evenodd" clip-rule="evenodd" d="M33.8127 21.0641C33.8127 21.0641 33.997 22 34.0599 22.009C37.4537 22.4929 40 24.4725 40 28C40 31.866 36.866 35 33 35H15C11.134 35 8 31.866 8 28C8 24.4725 10.6092 21.5544 14.003 21.0705C14.0659 21.0615 14.1275 21.0596 14.1873 21.0641C15.0889 16.4677 19.1395 13 24 13C28.8605 13 32.9111 16.4677 33.8127 21.0641Z" fill="#F3F3F3"/>
      <path d="M33 35H33.4118C37.0503 35 40 32.1272 40 28.5833C40 25.3383 37.5268 22.6559 34.3161 22.2266C33.8697 17.0587 29.4215 13 24 13C19.2043 13 15.1702 16.1758 13.9938 20.486C10.5718 21.1766 8 24.1291 8 27.6667C8 31.5434 11.0886 34.7175 15 34.9822" fill="none" stroke="#231815" stroke-width="2" stroke-linecap="round" stroke-linejoin="round"/>
      <path d="M18 37.6962L20.5 33.366M23 36.6962L25.5 32.366M27 38.6962L29.5 34.366" fill="none" stroke="#231815" stroke-width="2" stroke-linecap="round" stroke-linejoin="round"/>
    </g> 
  </symbol> 
  <symbol id="sleet" viewBox="0 0 48 48">
    <g>
      <path fill-rule="evenodd" clip-rule="evenodd" d="M33.8127 21.0641C33.8127 21.0641 33.997 22 34.0599 22.009C37.4537 22.4929 40 24.4725 40 28C40 31.866 36.866 35 33 35H15C11.134 35 8 31.866 8 28C8 24.4725 10.6092 21.5544 14.003 21.0705C14.0659 21.0615 14.1275 21.0596 14.1873 21.0641C15.0889 16.4677 19.1395 13 24 13C28.8605 13 32.9111 16.4677 33.8127 21.0641Z" fill="#F3F3F3"/>
      <path d="M33 35H33.4118C37.0503 35 40 32.1272 40 28.5833C40 25.3383 37.5268 22.6559 34.3161 22.2266C33.8697 17.0587 29.4215 13 24 13C19.2043 13 15.1702 16.1758 13.9938 20.486C10.5718 21.1766 8 24.1291 8 27.6667C8 31.5434 11.0886 34.7175 15 34.9822" fill="none" stroke="#231815" stroke-width="2" stroke-linecap="round" stroke-linejoin="round"/>
      <path fill-rule="evenodd" clip-rule="evenodd" d="M25.866 36.1794C25.3877 35.9032 25.2612 35.227 25.5833 34.669L27.9167 30.6276C28.2388 30.0696 28.8877 29.8411 29.366 30.1172C29.8443 30.3933 29.9709 31.0696 29.6487 31.6276L27.3154 35.669C26.9932 36.227 26.3443 36.4555 25.866 36.1794Z" fill="#231815"/>
      <path fill-rule="evenodd" clip-rule="evenodd" d="M26.866 41.1794C26.3877 40.9032 26.2612 40.227 26.5833 39.669L28.9167 35.6276C29.2388 35.0696 29.8877 34.8411 30.366 35.1172C30.8443 35.3933 30.9709 36.0696 30.6487 36.6276L28.3154 40.669C27.9932 41.227 27.3443 41.4555 26.866 41.1794Z" fill="#231815"/>
      <path d="M20.2735 32.4922C20.2735 32.0089 20.6652 31.6172 21.1485 31.6172C21.6317 31.6172 22.0235 32.0089 22.0235 32.4922V33.6016L22.9843 33.0469C23.4028 32.8053 23.9379 32.9487 24.1796 33.3672C24.4212 33.7857 24.2778 34.3208 23.8593 34.5625L22.8985 35.1172L23.8593 35.6719C24.2778 35.9136 24.4212 36.4487 24.1796 36.8672C23.9379 37.2857 23.4028 37.4291 22.9843 37.1875L22.0235 36.6327V37.7422C22.0235 38.2254 21.6317 38.6172 21.1485 38.6172C20.6652 38.6172 20.2735 38.2254 20.2735 37.7422V36.6327L19.3126 37.1875C18.8941 37.4291 18.359 37.2857 18.1174 36.8672C17.8758 36.4487 18.0191 35.9135 18.4376 35.6719L19.3985 35.1172L18.4376 34.5625C18.0191 34.3208 17.8757 33.7857 18.1174 33.3672C18.359 32.9487 18.8941 32.8053 19.3126 33.0469L20.2735 33.6017V32.4922Z" fill="#231815"/>
    </g> 
  </symbol> 
  <symbol id="snow" viewBox="0 0 48 48">
    <g>
      <path fill-rule="evenodd" clip-rule="evenodd" d="M33.8127 21.0641C33.8127 21.0641 33.997 22 34.0599 22.009C37.4537 22.4929 40 24.4725 40 28C40 31.866 36.866 35 33 35H15C11.134 35 8 31.866 8 28C8 24.4725 10.6092 21.5544 14.003 21.0705C14.0659 21.0615 14.1275 21.0596 14.1873 21.0641C15.0889 16.4677 19.1395 13 24 13C28.8605 13 32.9111 16.4677 33.8127 21.0641Z" fill="#F3F3F3"/>
      <path d="M33 35H33.4118C37.0503 35 40 32.1272 40 28.5833C40 25.3383 37.5268 22.6559 34.3161 22.2266C33.8697 17.0587 29.4215 13 24 13C19.2043 13 15.1702 16.1758 13.9938 20.486C10.5718 21.1766 8 24.1291 8 27.6667C8 31.5434 11.0886 34.7175 15 34.9822" fill="none" stroke="#231815" stroke-width="2" stroke-linecap="round" stroke-linejoin="round"/>
      <path d="M19.2735 28.875C19.2735 28.3918 19.6652 28 20.1485 28C20.6317 28 21.0235 28.3918 21.0235 28.875V29.9845L21.9843 29.4297C22.4028 29.1881 22.9379 29.3315 23.1796 29.75C23.4212 30.1685 23.2778 30.7036 22.8593 30.9453L21.8985 31.5L22.8593 32.0547C23.2778 32.2964 23.4212 32.8315 23.1796 33.25C22.9379 33.6685 22.4028 33.8119 21.9843 33.5703L21.0235 33.0156V34.125C21.0235 34.6082 20.6317 35 20.1485 35C19.6652 35 19.2735 34.6082 19.2735 34.125V33.0155L18.3126 33.5703C17.8941 33.8119 17.359 33.6685 17.1174 33.25C16.8758 32.8315 17.0191 32.2964 17.4376 32.0547L18.3985 31.5L17.4376 30.9453C17.0191 30.7036 16.8757 30.1685 17.1174 29.75C17.359 29.3315 17.8941 29.1881 18.3126 29.4297L19.2735 29.9845V28.875Z" fill="#231815"/>
      <path d="M27.2735 30.875C27.2735 30.3918 27.6652 30 28.1485 30C28.6317 30 29.0235 30.3918 29.0235 30.875V31.9845L29.9843 31.4297C30.4028 31.1881 30.9379 31.3315 31.1796 31.75C31.4212 32.1685 31.2778 32.7036 30.8593 32.9453L29.8985 33.5L30.8593 34.0547C31.2778 34.2964 31.4212 34.8315 31.1796 35.25C30.9379 35.6685 30.4028 35.8119 29.9843 35.5703L29.0235 35.0156V36.125C29.0235 36.6082 28.6317 37 28.1485 37C27.6652 37 27.2735 36.6082 27.2735 36.125V35.0155L26.3126 35.5703C25.8941 35.8119 25.359 35.6685 25.1174 35.25C24.8758 34.8315 25.0191 34.2964 25.4376 34.0547L26.3985 33.5L25.4376 32.9453C25.0191 32.7036 24.8757 32.1685 25.1174 31.75C25.359 31.3315 25.8941 31.1881 26.3126 31.4297L27.2735 31.9845V30.875Z" fill="#231815"/>
      <path d="M21.2735 36.375C21.2735 35.8918 21.6652 35.5 22.1485 35.5C22.6317 35.5 23.0235 35.8918 23.0235 36.375V37.4845L23.9843 36.9297C24.4028 36.6881 24.9379 36.8315 25.1796 37.25C25.4212 37.6685 25.2778 38.2036 24.8593 38.4453L23.8985 39L24.8593 39.5547C25.2778 39.7964 25.4212 40.3315 25.1796 40.75C24.9379 41.1685 24.4028 41.3119 23.9843 41.0703L23.0235 40.5156V41.625C23.0235 42.1082 22.6317 42.5 22.1485 42.5C21.6652 42.5 21.2735 42.1082 21.2735 41.625V40.5155L20.3126 41.0703C19.8941 41.3119 19.359 41.1685 19.1174 40.75C18.8758 40.3315 19.0191 39.7964 19.4376 39.5547L20.3985 39L19.4376 38.4453C19.0191 38.2036 18.8757 37.6685 19.1174 37.25C19.359 36.8315 19.8941 36.6881 20.3126 36.9297L21.2735 37.4845V36.375Z" fill="#231815"/>
    </g> 
  </symbol> 
  <symbol id="snow-flurries" viewBox="0 0 48 48">
    <g>
      <path fill-rule="evenodd" clip-rule="evenodd" d="M33.8127 21.0641C33.8127 21.0641 33.997 22 34.0599 22.009C37.4537 22.4929 40 24.4725 40 28C40 31.866 36.866 35 33 35H15C11.134 35 8 31.866 8 28C8 24.4725 10.6092 21.5544 14.003 21.0705C14.0659 21.0615 14.1275 21.0596 14.1873 21.0641C15.0889 16.4677 19.1395 13 24 13C28.8605 13 32.9111 16.4677 33.8127 21.0641Z" fill="#F3F3F3"/>
      <path d="M33 35H33.4118C37.0503 35 40 32.1272 40 28.5833C40 25.3383 37.5268 22.6559 34.3161 22.2266C33.8697 17.0587 29.4215 13 24 13C19.2043 13 15.1702 16.1758 13.9938 20.486C10.5718 21.1766 8 24.1291 8 27.6667C8 31.5434 11.0886 34.7175 15 34.9822" fill="none" stroke="#231815" stroke-width="2" stroke-linecap="round" stroke-linejoin="round"/>
      <path fill-rule="evenodd" clip-rule="evenodd" d="M23.2735 32.875C23.2735 32.3918 23.6652 32 24.1485 32C24.6317 32 25.0235 32.3918 25.0235 32.875V33.9845L25.9843 33.4297C26.4028 33.1881 26.9379 33.3315 27.1796 33.75C27.4212 34.1685 27.2778 34.7036 26.8593 34.9453L25.8985 35.5L26.8593 36.0547C27.2778 36.2964 27.4212 36.8315 27.1796 37.25C26.9379 37.6685 26.4028 37.8119 25.9843 37.5703L25.0235 37.0156V38.125C25.0235 38.6082 24.6317 39 24.1485 39C23.6652 39 23.2735 38.6082 23.2735 38.125V37.0155L22.3126 37.5703C21.8941 37.8119 21.359 37.6685 21.1174 37.25C20.8758 36.8315 21.0191 36.2964 21.4376 36.0547L22.3985 35.5L21.4376 34.9453C21.0191 34.7036 20.8757 34.1685 21.1174 33.75C21.359 33.3315 21.8941 33.1881 22.3126 33.4297L23.2735 33.9845V32.875Z" fill="#231815"/>
    </g> 
  </symbol> 
  <symbol id="clear-day" viewBox="0 0 48 48">
    <g>
      <path fill-rule="evenodd" clip-rule="evenodd" d="M35 24C35 30.0751 30.0751 35 24 35C17.9249 35 13 30.0751 13 24C13 17.9249 17.9249 13 24 13C30.0751 13 35 17.9249 35 24Z" stroke="#231815" stroke-width="2"/>
      <line x1="43" y1="24" x2="39" y2="24" stroke="#F25022" stroke-width="2" stroke-linecap="round" stroke-linejoin="round"/>
      <line x1="9" y1="24" x2="5" y2="24" stroke="#F25022" stroke-width="2" stroke-linecap="round" stroke-linejoin="round"/>
      <line x1="43" y1="24" x2="39" y2="24" stroke="#231815" stroke-width="2" stroke-linecap="round" stroke-linejoin="round"/>
      <line x1="9" y1="24" x2="5" y2="24" stroke="#231815" stroke-width="2" stroke-linecap="round" stroke-linejoin="round"/>
      <g clip-path="url(#clip0)">
      <line x1="40.4545" y1="33.5" x2="36.9904" y2="31.5" stroke="#231815" stroke-width="2" stroke-linecap="round" stroke-linejoin="round"/>
      </g>
      <g clip-path="url(#clip1)">
      <line x1="11.0096" y1="16.5" x2="7.54553" y2="14.5" stroke="#231815" stroke-width="2" stroke-linecap="round" stroke-linejoin="round"/>
      </g>
      <g clip-path="url(#clip2)">
      <line x1="33.5" y1="40.4545" x2="31.5" y2="36.9904" stroke="#231815" stroke-width="2" stroke-linecap="round" stroke-linejoin="round"/>
      </g>
      <g clip-path="url(#clip3)">
      <line x1="16.5" y1="11.0096" x2="14.5" y2="7.54551" stroke="#231815" stroke-width="2" stroke-linecap="round" stroke-linejoin="round"/>
      </g>
      <g clip-path="url(#clip4)">
      <line x1="24" y1="43" x2="24" y2="39" stroke="#231815" stroke-width="2" stroke-linecap="round" stroke-linejoin="round"/>
      </g>
      <g clip-path="url(#clip5)">
      <line x1="24" y1="9" x2="24" y2="5" stroke="#231815" stroke-width="2" stroke-linecap="round" stroke-linejoin="round"/>
      </g>
      <g clip-path="url(#clip6)">
      <line x1="14.5" y1="40.4545" x2="16.5" y2="36.9904" stroke="#231815" stroke-width="2" stroke-linecap="round" stroke-linejoin="round"/>
      </g>
      <g clip-path="url(#clip7)">
      <line x1="31.5" y1="11.0096" x2="33.5" y2="7.54551" stroke="#231815" stroke-width="2" stroke-linecap="round" stroke-linejoin="round"/>
      </g>
      <g clip-path="url(#clip8)">
      <line x1="7.54551" y1="33.5" x2="11.0096" y2="31.5" stroke="#231815" stroke-width="2" stroke-linecap="round" stroke-linejoin="round"/>
      </g>
      <g clip-path="url(#clip9)">
      <line x1="1" y1="-1" x2="4.99999" y2="-1" transform="matrix(0.866025 -0.5 0.499999 0.866026 36.6244 17.866)" stroke="#231815" stroke-width="2" stroke-linecap="round" stroke-linejoin="round"/>
      </g>
      <path d="M34 24C34 29.5228 29.5228 34 24 34C18.4772 34 14 29.5228 14 24C14 18.4772 18.4772 14 24 14C29.5228 14 34 18.4772 34 24Z" fill="#FFB900"/>
      <defs>
      <clipPath id="clip0">
      <rect x="36.2583" y="28.7679" width="8" height="4" rx="2" transform="rotate(30 36.2583 28.7679)" fill="white"/>
      </clipPath>
      <clipPath id="clip1">
      <rect x="6.81348" y="11.7679" width="8" height="4" rx="2" transform="rotate(30 6.81348 11.7679)" fill="white"/>
      </clipPath>
      <clipPath id="clip2">
      <rect x="32.2321" y="34.2583" width="8.00001" height="4" rx="2" transform="rotate(60 32.2321 34.2583)" fill="white"/>
      </clipPath>
      <clipPath id="clip3">
      <rect x="15.2321" y="4.81346" width="8" height="4" rx="2" transform="rotate(60 15.2321 4.81346)" fill="white"/>
      </clipPath>
      <clipPath id="clip4">
      <rect x="26" y="37" width="8" height="4.00001" rx="2" transform="rotate(90 26 37)" fill="white"/>
      </clipPath>
      <clipPath id="clip5">
      <rect x="26" y="3" width="8" height="4.00001" rx="2" transform="rotate(90 26 3)" fill="white"/>
      </clipPath>
      <clipPath id="clip6">
      <rect x="19.2321" y="36.2583" width="8" height="4" rx="2" transform="rotate(120 19.2321 36.2583)" fill="white"/>
      </clipPath>
      <clipPath id="clip7">
      <rect x="36.2321" y="6.81346" width="8" height="4" rx="2" transform="rotate(120 36.2321 6.81346)" fill="white"/>
      </clipPath>
      <clipPath id="clip8">
      <rect x="13.7417" y="32.2321" width="8" height="4" rx="2" transform="rotate(150 13.7417 32.2321)" fill="white"/>
      </clipPath>
      <clipPath id="clip9">
      <rect width="7.99999" height="4" rx="2" transform="matrix(-0.866025 0.5 -0.499999 -0.866026 43.1865 15.2321)" fill="white"/>
      </clipPath>
      </defs>
    </g> 
  </symbol> 
  <symbol id="clear-night" viewBox="0 0 48 48">
    <g> 
      <path fill-rule="evenodd" clip-rule="evenodd" d="M36 24.7074C34.5376 25.6982 32.7732 26.277 30.8737 26.277C25.8198 26.277 21.7228 22.18 21.7228 17.1261C21.7228 15.2266 22.3015 13.4624 23.2922 12C16.9934 12.3715 12 17.5973 12 23.9894C12 30.6227 17.3773 36 24.0106 36C30.4028 36 35.6286 31.0064 36 24.7074Z" fill="#ADD0EC" stroke="#231815" stroke-width="2" stroke-linecap="round" stroke-linejoin="round"/> 
    </g> 
  </symbol> 
  <symbol id="thunderstroms" viewBox="0 0 48 48">
    <g>
      <path fill-rule="evenodd" clip-rule="evenodd" d="M33.8127 21.0641C33.8127 21.0641 33.997 22 34.0599 22.009C37.4537 22.4929 40 24.4725 40 28C40 31.866 36.866 35 33 35H15C11.134 35 8 31.866 8 28C8 24.4725 10.6092 21.5544 14.003 21.0705C14.0659 21.0615 14.1275 21.0596 14.1873 21.0641C15.0889 16.4677 19.1395 13 24 13C28.8605 13 32.9111 16.4677 33.8127 21.0641Z" fill="#F3F3F3"/>
      <path d="M33 35H33.4118C37.0503 35 40 32.1272 40 28.5833C40 25.3383 37.5268 22.6559 34.3161 22.2266C33.8697 17.0587 29.4215 13 24 13C19.2043 13 15.1702 16.1758 13.9938 20.486C10.5718 21.1766 8 24.1291 8 27.6667C8 31.5434 11.0886 34.7175 15 34.9822" fill="none" stroke="#231815" stroke-width="2" stroke-linecap="round" stroke-linejoin="round"/>
      <path fill-rule="evenodd" clip-rule="evenodd" d="M26.866 37.5622C26.3877 37.2861 26.2612 36.6098 26.5833 36.0518L28.9167 32.0104C29.2388 31.4524 29.8877 31.2239 30.366 31.5C30.8443 31.7762 30.9709 32.4524 30.6487 33.0104L28.3154 37.0518C27.9932 37.6098 27.3443 37.8383 26.866 37.5622Z" fill="#231815"/>
      <path d="M25.9808 33.1872C25.9396 33.0676 25.8374 32.9812 25.7157 32.9633L21.9947 32.4116L23.7017 28.4818C23.7473 28.376 23.7382 28.2533 23.6769 28.1559C23.6159 28.0588 23.511 28 23.3988 28H18.2022C18.0236 28 17.8772 28.1458 17.8708 28.3297L17.6315 35.3135C17.6255 35.488 17.7481 35.6391 17.9157 35.664L20.5027 36.048L17.0414 42.4926C16.9603 42.6443 17.0015 42.8341 17.1376 42.9357C17.1962 42.9793 17.2639 43 17.3316 43C17.4214 43 17.5105 42.9623 17.5755 42.8894L25.9127 33.5332C25.9958 33.4399 26.022 33.3068 25.9808 33.1872Z" fill="#FFB900"/>
    </g> 
  </symbol>
  <symbol id="tornado" viewBox="0 0 48 48">
    <g>
      <path fill-rule="evenodd" clip-rule="evenodd" d="M33.8127 21.0641C33.8127 21.0641 33.997 22 34.0599 22.009C37.4537 22.4929 40 24.4725 40 28C40 31.866 36.866 35 33 35H15C11.134 35 8 31.866 8 28C8 24.4725 10.6092 21.5544 14.003 21.0705C14.0659 21.0615 14.1275 21.0596 14.1873 21.0641C15.0889 16.4677 19.1395 13 24 13C28.8605 13 32.9111 16.4677 33.8127 21.0641Z" fill="#F3F3F3"/>
      <path d="M33 35H33.4118C37.0503 35 40 32.1272 40 28.5833C40 25.3383 37.5268 22.6559 34.3161 22.2266C33.8697 17.0587 29.4215 13 24 13C19.2043 13 15.1702 16.1758 13.9938 20.486C10.5718 21.1766 8 24.1291 8 27.6667C8 31.5434 11.0886 34.7175 15 34.9822" fill="none" stroke="#231815" stroke-width="2" stroke-linecap="round" stroke-linejoin="round"/>
      <path d="M17 30H28.1972C28.6988 30 29.1671 30.2507 29.4453 30.6679V30.6679C29.7812 31.1718 29.7812 31.8282 29.4453 32.3321V32.3321C29.1671 32.7493 28.6988 33 28.1972 33H20.8028C20.3012 33 19.8329 33.2507 19.5547 33.6679V33.6679C19.2188 34.1718 19.2188 34.8282 19.5547 35.3321V35.3321C19.8329 35.7493 20.3012 36 20.8028 36H26.1972C26.6988 36 27.1671 36.2507 27.4453 36.6679V36.6679C27.7812 37.1718 27.7812 37.8282 27.4453 38.3321V38.3321C27.1671 38.7493 26.6988 39 26.1972 39H22.8028C22.3012 39 21.8329 39.2507 21.5547 39.6679V39.6679C21.2188 40.1718 21.2188 40.8282 21.5547 41.3321V41.3321C21.8329 41.7493 22.3012 42 22.8028 42H25" stroke="#231815" stroke-width="1"/>
    </g> 
  </symbol> 
  <symbol id="windy" viewBox="0 0 48 48">
    <g>
      <path fill-rule="evenodd" clip-rule="evenodd" d="M33.8127 21.0641C33.8127 21.0641 33.997 22 34.0599 22.009C37.4537 22.4929 40 24.4725 40 28C40 31.866 36.866 35 33 35H15C11.134 35 8 31.866 8 28C8 24.4725 10.6092 21.5544 14.003 21.0705C14.0659 21.0615 14.1275 21.0596 14.1873 21.0641C15.0889 16.4677 19.1395 13 24 13C28.8605 13 32.9111 16.4677 33.8127 21.0641Z" fill="#F3F3F3"/>
      <path d="M33 35H33.4118C37.0503 35 40 32.1272 40 28.5833C40 25.3383 37.5268 22.6559 34.3161 22.2266C33.8697 17.0587 29.4215 13 24 13C19.2043 13 15.1702 16.1758 13.9938 20.486C10.5718 21.1766 8 24.1291 8 27.6667C8 31.5434 11.0886 34.7175 15 34.9822" fill="none" stroke="#231815" stroke-width="2" stroke-linecap="round" stroke-linejoin="round"/>
      <path fill-rule="evenodd" clip-rule="evenodd" d="M21 29C21 27.3431 22.3431 26 24 26C25.6569 26 27 27.3431 27 29V29.5C27 31.433 25.433 33 23.5 33H17C16.4477 33 16 32.5523 16 32C16 31.4477 16.4477 31 17 31H23.5C24.3284 31 25 30.3284 25 29.5V29C25 28.4477 24.5523 28 24 28C23.4477 28 23 28.4477 23 29V29.2727C23 29.825 22.5523 30.2727 22 30.2727C21.4477 30.2727 21 29.825 21 29.2727V29ZM25 41.5C25 43.433 26.567 45 28.5 45C30.433 45 32 43.433 32 41.5V41C32 38.7909 30.2091 37 28 37H18C17.4477 37 17 37.4477 17 38C17 38.5523 17.4477 39 18 39H28C29.1046 39 30 39.8954 30 41V41.5C30 42.3284 29.3284 43 28.5 43C27.6716 43 27 42.3284 27 41.5V41C27 40.4477 26.5523 40 26 40C25.4477 40 25 40.4477 25 41V41.5ZM19 34C18.4477 34 18 34.4477 18 35C18 35.5523 18.4477 36 19 36H29C29.5523 36 30 35.5523 30 35C30 34.4477 29.5523 34 29 34H19Z" fill="#231815"/>
    </g> 
  </symbol> 
  <symbol id="wind" viewBox="0 0 20 20">
    <g>
      <path fill-rule="evenodd" clip-rule="evenodd" d="M7 4C7 2.34315 8.34315 1 10 1C11.6569 1 13 2.34315 13 4V4.5C13 6.433 11.433 8 9.5 8H3C2.44772 8 2 7.55228 2 7C2 6.44772 2.44772 6 3 6H9.5C10.3284 6 11 5.32843 11 4.5V4C11 3.44772 10.5523 3 10 3C9.44772 3 9 3.44772 9 4V4.27273C9 4.82501 8.55228 5.27273 8 5.27273C7.44772 5.27273 7 4.82501 7 4.27273V4ZM11 16.5C11 18.433 12.567 20 14.5 20C16.433 20 18 18.433 18 16.5V16C18 13.7909 16.2091 12 14 12H4C3.44772 12 3 12.4477 3 13C3 13.5523 3.44772 14 4 14H14C15.1046 14 16 14.8954 16 16V16.5C16 17.3284 15.3284 18 14.5 18C13.6716 18 13 17.3284 13 16.5V16C13 15.4477 12.5523 15 12 15C11.4477 15 11 15.4477 11 16V16.5ZM5 9C4.44772 9 4 9.44772 4 10C4 10.5523 4.44772 11 5 11H15C15.5523 11 16 10.5523 16 10C16 9.44772 15.5523 9 15 9H5Z" fill="#BDBDBD"/>
    </g> 
  </symbol>  
  <symbol id="compass" viewBox="0 0 20 20">
    <g> 
      <path fill-rule="evenodd" clip-rule="evenodd" d="M1.66666 10C1.66666 5.4 5.39999 1.66666 9.99999 1.66666C14.6 1.66666 18.3333 5.4 18.3333 10C18.3333 14.6 14.6 18.3333 9.99999 18.3333C5.39999 18.3333 1.66666 14.6 1.66666 10ZM3.33332 10C3.33332 13.675 6.32499 16.6667 9.99999 16.6667C13.675 16.6667 16.6667 13.675 16.6667 10C16.6667 6.325 13.675 3.33333 9.99999 3.33333C6.32499 3.33333 3.33332 6.325 3.33332 10ZM5.41666 14.5833L11.675 11.675L14.5833 5.41666L8.32499 8.325L5.41666 14.5833ZM10.9167 10C10.9167 9.49166 10.5083 9.08333 9.99999 9.08333C9.49166 9.08333 9.08332 9.49166 9.08332 10C9.08332 10.5083 9.49166 10.9167 9.99999 10.9167C10.5083 10.9167 10.9167 10.5083 10.9167 10Z" fill="#BDBDBD"/>
   </g> 
  </symbol>  
</svg>